<svg width="133" height="25" viewBox="0 0 133 25" version="1.1" xmlns="http://www.w3.org/2000/svg" xmlns:xlink="http://www.w3.org/1999/xlink">
<title>helpmechoose</title>
<desc>Created using Figma</desc>
<g id="Canvas" transform="translate(-131 -2810)">
<g id="helpmechoose">
<g id="helpmechoose">
<use xlink:href="#path0_fill" transform="translate(131 2810)" fill="#D44A2B"/>
<use xlink:href="#path1_fill" transform="translate(131 2810)" fill="#EEB53C"/>
<use xlink:href="#path2_fill" transform="translate(131 2810)" fill="#389DB2"/>
</g>
</g>
</g>
<defs>
<path id="path0_fill" d="M 10 18L 10 11.16C 10 9.18 8.96 8.1 6.88 8.1C 5.36 8.1 4.1 8.9 3.46 9.66L 3.46 4.66L 1.36 4.66L 1.36 18L 3.46 18L 3.46 11.26C 3.96 10.6 4.88 9.96 5.94 9.96C 7.12 9.96 7.9 10.42 7.9 11.92L 7.9 18L 10 18ZM 17.1872 18.24C 18.7272 18.24 20.1472 17.76 21.1072 16.84L 20.1472 15.46C 19.4672 16.14 18.3472 16.52 17.4072 16.52C 15.5872 16.52 14.4872 15.32 14.3272 13.86L 21.7872 13.86L 21.7872 13.36C 21.7872 10.32 19.9272 8.1 17.0272 8.1C 14.1672 8.1 12.1272 10.36 12.1272 13.16C 12.1272 16.22 14.2872 18.24 17.1872 18.24ZM 19.7472 12.38L 14.3072 12.38C 14.4072 11.2 15.2272 9.82 17.0272 9.82C 18.9272 9.82 19.7072 11.24 19.7472 12.38ZM 25.96 18L 25.96 4.66L 23.86 4.66L 23.86 18L 25.96 18ZM 33.8842 18.24C 36.3842 18.24 38.1642 16.34 38.1642 13.16C 38.1642 9.98 36.3842 8.1 33.8842 8.1C 32.6242 8.1 31.5042 8.7 30.7842 9.66L 30.7842 8.34L 28.6842 8.34L 28.6842 21.68L 30.7842 21.68L 30.7842 16.66C 31.5642 17.7 32.6642 18.24 33.8842 18.24ZM 33.2642 16.38C 32.2842 16.38 31.2442 15.78 30.7842 15.08L 30.7842 11.26C 31.2442 10.54 32.2842 9.96 33.2642 9.96C 34.9242 9.96 35.9842 11.3 35.9842 13.16C 35.9842 15.04 34.9242 16.38 33.2642 16.38Z"/>
<path id="path1_fill" d="M 54.6867 18L 54.6867 11.02C 54.6867 9.04 53.6267 8.1 51.8467 8.1C 50.3667 8.1 49.0867 8.98 48.5267 9.86C 48.1667 8.76 47.2667 8.1 45.8467 8.1C 44.3667 8.1 43.0867 9.02 42.6867 9.6L 42.6867 8.34L 40.1467 8.34L 40.1467 18L 42.6867 18L 42.6867 11.5C 43.0667 10.96 43.8067 10.36 44.6867 10.36C 45.7267 10.36 46.1267 11 46.1267 11.9L 46.1267 18L 48.6867 18L 48.6867 11.48C 49.0467 10.96 49.7867 10.36 50.6867 10.36C 51.7267 10.36 52.1267 11 52.1267 11.9L 52.1267 18L 54.6867 18ZM 61.718 18.24C 63.218 18.24 64.738 17.78 65.698 16.9L 64.578 15.26C 63.958 15.86 62.818 16.22 61.998 16.22C 60.358 16.22 59.378 15.2 59.218 13.98L 66.398 13.98L 66.398 13.42C 66.398 10.26 64.438 8.1 61.558 8.1C 58.618 8.1 56.558 10.36 56.558 13.16C 56.558 16.26 58.778 18.24 61.718 18.24ZM 63.938 12.26L 59.178 12.26C 59.298 11.3 59.978 10.12 61.558 10.12C 63.238 10.12 63.878 11.34 63.938 12.26Z"/>
<path id="path2_fill" d="M 72.7327 18.24C 74.7127 18.24 75.9127 17.38 76.5527 16.48L 74.8927 14.94C 74.4327 15.58 73.7327 15.98 72.8527 15.98C 71.3127 15.98 70.2327 14.84 70.2327 13.16C 70.2327 11.48 71.3127 10.36 72.8527 10.36C 73.7327 10.36 74.4327 10.72 74.8927 11.4L 76.5527 9.84C 75.9127 8.96 74.7127 8.1 72.7327 8.1C 69.7527 8.1 67.6127 10.2 67.6127 13.16C 67.6127 16.14 69.7527 18.24 72.7327 18.24ZM 87.2931 18L 87.2931 11.14C 87.2931 9.26 86.2731 8.1 84.1531 8.1C 82.5731 8.1 81.3731 8.86 80.7531 9.6L 80.7531 4.66L 78.2131 4.66L 78.2131 18L 80.7531 18L 80.7531 11.5C 81.1931 10.92 81.9731 10.36 82.9531 10.36C 84.0531 10.36 84.7531 10.78 84.7531 12.12L 84.7531 18L 87.2931 18ZM 94.2947 18.24C 97.4947 18.24 99.4147 15.92 99.4147 13.16C 99.4147 10.42 97.4947 8.1 94.2947 8.1C 91.1147 8.1 89.1947 10.42 89.1947 13.16C 89.1947 15.92 91.1147 18.24 94.2947 18.24ZM 94.2947 15.98C 92.7147 15.98 91.8347 14.68 91.8347 13.16C 91.8347 11.66 92.7147 10.36 94.2947 10.36C 95.8747 10.36 96.7747 11.66 96.7747 13.16C 96.7747 14.68 95.8747 15.98 94.2947 15.98ZM 105.779 18.24C 108.979 18.24 110.899 15.92 110.899 13.16C 110.899 10.42 108.979 8.1 105.779 8.1C 102.599 8.1 100.679 10.42 100.679 13.16C 100.679 15.92 102.599 18.24 105.779 18.24ZM 105.779 15.98C 104.199 15.98 103.319 14.68 103.319 13.16C 103.319 11.66 104.199 10.36 105.779 10.36C 107.359 10.36 108.259 11.66 108.259 13.16C 108.259 14.68 107.359 15.98 105.779 15.98ZM 116.263 18.24C 118.943 18.24 120.443 16.9 120.443 15.14C 120.443 12.72 118.223 12.26 116.563 11.94C 115.483 11.72 114.723 11.56 114.723 11C 114.723 10.46 115.323 10.04 116.243 10.04C 117.423 10.04 118.523 10.54 119.103 11.16L 120.123 9.42C 119.163 8.66 117.863 8.1 116.223 8.1C 113.683 8.1 112.263 9.52 112.263 11.14C 112.263 13.46 114.403 13.88 116.063 14.2C 117.123 14.4 118.003 14.58 118.003 15.24C 118.003 15.84 117.483 16.28 116.383 16.28C 115.183 16.28 113.743 15.62 113.043 14.96L 111.943 16.74C 112.963 17.68 114.583 18.24 116.263 18.24ZM 126.855 18.24C 128.355 18.24 129.875 17.78 130.835 16.9L 129.715 15.26C 129.095 15.86 127.955 16.22 127.135 16.22C 125.495 16.22 124.515 15.2 124.355 13.98L 131.535 13.98L 131.535 13.42C 131.535 10.26 129.575 8.1 126.695 8.1C 123.755 8.1 121.695 10.36 121.695 13.16C 121.695 16.26 123.915 18.24 126.855 18.24ZM 129.075 12.26L 124.315 12.26C 124.435 11.3 125.115 10.12 126.695 10.12C 128.375 10.12 129.015 11.34 129.075 12.26Z"/>
</defs>
</svg>
